<svg width="26" height="18" viewBox="0 0 26 18" fill="none" xmlns="http://www.w3.org/2000/svg">
<path fill-rule="evenodd" clip-rule="evenodd" d="M1 0C0.447715 0 0 0.447715 0 1C0 1.55228 0.447715 2 1 2L25 2C25.5523 2 26 1.55229 26 1C26 0.447718 25.5523 2.84963e-06 25 2.81101e-06L1 0ZM0 9C0 8.44771 0.447715 8 1 8L25 8C25.5523 8 26 8.44772 26 9C26 9.55229 25.5523 10 25 10L1 10C0.447715 10 0 9.55228 0 9ZM0 17C0 16.4477 0.447715 16 1 16L25 16C25.5523 16 26 16.4477 26 17C26 17.5523 25.5523 18 25 18L1 18C0.447715 18 0 17.5523 0 17Z" fill="#086E8D"/>
</svg>
