<svg width="5" height="8" viewBox="0 0 5 8" fill="none" xmlns="http://www.w3.org/2000/svg">
<path d="M0.222057 0.210473C0.151666 0.276757 0.0958202 0.355489 0.0577167 0.442164C0.0196132 0.528838 0 0.621752 0 0.715588C0 0.809423 0.0196132 0.902338 0.0577167 0.989012C0.0958202 1.07569 0.151666 1.15442 0.222057 1.2207L3.1682 4.00062L0.222057 6.78055C0.151758 6.84688 0.0959946 6.92563 0.0579492 7.01229C0.0199038 7.09896 0.000321518 7.19185 0.000321518 7.28566C0.000321517 7.37947 0.0199038 7.47236 0.0579492 7.55903C0.0959946 7.64569 0.151758 7.72444 0.222057 7.79078C0.292356 7.85711 0.375813 7.90973 0.467662 7.94562C0.559512 7.98152 0.657956 8 0.757374 8C0.856791 8 0.955235 7.98152 1.04708 7.94562C1.13893 7.90973 1.22239 7.85711 1.29269 7.79078L4.77794 4.50216C4.84833 4.43587 4.90418 4.35714 4.94228 4.27047C4.98039 4.18379 5 4.09088 5 3.99704C5 3.90321 4.98039 3.81029 4.94228 3.72362C4.90418 3.63694 4.84833 3.55821 4.77794 3.49193L1.29269 0.203308C1.00415 -0.068952 0.51819 -0.0689519 0.222057 0.210473Z" fill="#C9C9C9"/>
</svg>
