<svg width="20" height="20" viewBox="0 0 20 20" fill="none" xmlns="http://www.w3.org/2000/svg">
<path d="M8.91563 3.09682C9.10625 2.72807 8.9625 2.27494 8.59688 2.08432C8.23125 1.89369 7.775 2.03744 7.58437 2.40307L4.675 7.99997H2C1.44687 7.99997 1 8.44684 1 8.99997C1 9.5531 1.44687 9.99997 2 9.99997L3.62188 16.4844C3.84375 17.375 4.64375 18 5.5625 18H14.4375C15.3562 18 16.1562 17.375 16.3781 16.4844L18 9.99997C18.5531 9.99997 19 9.5531 19 8.99997C19 8.44684 18.5531 7.99997 18 7.99997H15.325L12.4156 2.40307C12.225 2.03744 11.7719 1.89369 11.4031 2.08432C11.0344 2.27494 10.8938 2.72807 11.0844 3.09682L13.6344 7.99997H6.36562L8.91563 3.09682ZM7 11.5V14.5C7 14.775 6.775 15 6.5 15C6.225 15 6 14.775 6 14.5V11.5C6 11.225 6.225 11 6.5 11C6.775 11 7 11.225 7 11.5ZM10 11C10.275 11 10.5 11.225 10.5 11.5V14.5C10.5 14.775 10.275 15 10 15C9.725 15 9.5 14.775 9.5 14.5V11.5C9.5 11.225 9.725 11 10 11ZM14 11.5V14.5C14 14.775 13.775 15 13.5 15C13.225 15 13 14.775 13 14.5V11.5C13 11.225 13.225 11 13.5 11C13.775 11 14 11.225 14 11.5Z" fill="#F4BC69"/>
</svg>
