<svg width="25" height="20" viewBox="0 0 25 20" fill="none" xmlns="http://www.w3.org/2000/svg">
<path fill-rule="evenodd" clip-rule="evenodd" d="M23.5982 17.6426C24.041 17.9727 24.1539 18.6144 23.8505 19.0759C23.547 19.5373 22.9421 19.6438 22.4993 19.3137L12.0104 11.4936L1.52152 19.3137C1.07875 19.6438 0.473812 19.5373 0.170356 19.0759C-0.1331 18.6144 -0.0201625 17.9727 0.422608 17.6426L10.3403 10.2484L0.42256 2.85424C-0.02021 2.52413 -0.133148 1.88245 0.170308 1.421C0.473764 0.959558 1.0787 0.853089 1.52147 1.1832L12.0104 9.00328L22.4994 1.1832C22.9421 0.853089 23.5471 0.959558 23.8505 1.421C24.154 1.88245 24.041 2.52413 23.5983 2.85424L13.6805 10.2484L23.5982 17.6426Z" fill="white"/>
</svg>
