<svg width="32" height="32" viewBox="0 0 32 32" fill="none" xmlns="http://www.w3.org/2000/svg">
<path d="M16.0001 29.3333C23.3639 29.3333 29.3334 23.3638 29.3334 16C29.3334 8.63621 23.3639 2.66667 16.0001 2.66667C8.63628 2.66667 2.66675 8.63621 2.66675 16C2.66675 23.3638 8.63628 29.3333 16.0001 29.3333Z" stroke="#F4BC69" stroke-width="2" stroke-linecap="round" stroke-linejoin="round"/>
<path fill-rule="evenodd" clip-rule="evenodd" d="M16.707 9.95955C16.3165 9.56903 15.6833 9.56903 15.2928 9.95955C14.9022 10.3501 14.9022 10.9832 15.2928 11.3738L18.919 15H10.6665C10.1142 15 9.6665 15.4477 9.6665 16C9.6665 16.5523 10.1142 17 10.6665 17H18.919L15.2928 20.6262C14.9022 21.0167 14.9022 21.6499 15.2928 22.0404C15.6833 22.431 16.3165 22.431 16.707 22.0404L22.0403 16.7071C22.1484 16.599 22.2266 16.4723 22.2749 16.3373C22.3026 16.2598 22.3211 16.1779 22.3289 16.0929C22.3422 15.9491 22.3246 15.8031 22.2759 15.6656C22.2277 15.5295 22.1492 15.4018 22.0403 15.2929L16.707 9.95955Z" fill="#F4BC69"/>
</svg>
